# xmcd
#
# Track frame offsets:
#	150
#	15915
#	32804
#	50114
#	70612
#	86992
#	103930
#	120832
#	141024
#	154240
#	170044
#	189428
#	210586
#	229813
#	243552
#
# Disc length: 3436 seconds
#
# Revision: 0
# Processed by: cddbd v1.5.2PL0 Copyright (c) Steve Scherf et al.
# Submitted via: dBpowerAMP V4.0
#
DISCID=cc0d6a0f
DTITLE=Formatia Neluta Bucur - Din Prietenie
DYEAR=2007
DGENRE=Country
TTITLE0=Fir-ati sa fiti mandrelor
TTITLE1=Cum sa mai fac eu avere
TTITLE2=Ce faci omule cu banii
TTITLE3=Taicuta al meu cu griji multe
TTITLE4=Are tata doi feciori
TTITLE5=Din prietenie - Etno TV
TTITLE6=Sarba - Instrumentala
TTITLE7=I-auzi socrule cum canta
TTITLE8=Ziua beau si noaptea beau
TTITLE9=M-am nascut copil sarac
TTITLE10=Astazi vreau ca sa petrec
TTITLE11=Nu mai bate , Doamne , omul
TTITLE12=Eu sunt doctor de femei
TTITLE13=Doruri mari si chinuri grele
TTITLE14=Hora - Instrumentala
EXTD=
EXTT0=
EXTT1=
EXTT2=
EXTT3=
EXTT4=
EXTT5=
EXTT6=
EXTT7=
EXTT8=
EXTT9=
EXTT10=
EXTT11=
EXTT12=
EXTT13=
EXTT14=
PLAYORDER=
